<svg viewBox="0 0 24 24" aria-hidden="true" xmlns="http://www.w3.org/2000/svg">
  <path d="M12 7.1a4.9 4.9 0 1 0 0 9.8 4.9 4.9 0 0 0 0-9.8zm0 8.1a3.2 3.2 0 1 1 0-6.4 3.2 3.2 0 0 1 0 6.4zM17.2 6.9a1.1 1.1 0 1 0 0-2.2 1.1 1.1 0 0 0 0 2.2z" fill="currentColor"/>
  <path d="M12 2.8c3 0 3.4 0 4.6.1 1 .1 1.6.2 2 .4.6.2 1 .4 1.5.9.4.4.7.8.9 1.5.2.5.3 1 .4 2 .1 1.2.1 1.6.1 4.6s0 3.4-.1 4.6c-.1 1-.2 1.6-.4 2-.2.6-.4 1-.9 1.5-.4.4-.8.7-1.5.9-.5.2-1 .3-2 .4-1.2.1-1.6.1-4.6.1s-3.4 0-4.6-.1c-1-.1-1.6-.2-2-.4a3.7 3.7 0 0 1-1.5-.9 3.7 3.7 0 0 1-.9-1.5c-.2-.5-.3-1-.4-2-.1-1.2-.1-1.6-.1-4.6s0-3.4.1-4.6c.1-1 .2-1.6.4-2 .2-.6.4-1 .9-1.5.4-.4.8-.7 1.5-.9.5-.2 1-.3 2-.4 1.2-.1 1.6-.1 4.6-.1zm0-1.8c-3 0-3.5 0-4.7.1-1.2.1-2 .3-2.7.6-.8.3-1.5.7-2.2 1.4C1.7 3.8 1.3 4.4 1 5.2c-.3.8-.5 1.5-.6 2.7C.3 9.1.3 9.6.3 12.6s0 3.5.1 4.7c.1 1.2.3 2 .6 2.7.3.8.7 1.5 1.4 2.2.7.7 1.3 1.1 2.2 1.4.8.3 1.5.5 2.7.6 1.2.1 1.7.1 4.7.1s3.5 0 4.7-.1c1.2-.1 2-.3 2.7-.6.8-.3 1.5-.7 2.2-1.4.7-.7 1.1-1.3 1.4-2.2.3-.8.5-1.5.6-2.7.1-1.2.1-1.7.1-4.7s0-3.5-.1-4.7c-.1-1.2-.3-2-.6-2.7-.3-.8-.7-1.5-1.4-2.2-.7-.7-1.3-1.1-2.2-1.4-.8-.3-1.5-.5-2.7-.6C15.5 1 15 1 12 1z" fill="currentColor"/>
</svg>
